<?xml version="1.0" standalone="no"?>
<!DOCTYPE svg PUBLIC "-//W3C//DTD SVG 20010904//EN"
 "http://www.w3.org/TR/2001/REC-SVG-20010904/DTD/svg10.dtd">
<svg version="1.0" xmlns="http://www.w3.org/2000/svg"
 width="64.000000pt" height="64.000000pt" viewBox="0 0 64.000000 64.000000"
 preserveAspectRatio="xMidYMid meet">

<g transform="translate(0.000000,64.000000) scale(0.100000,-0.100000)"
fill="#000000" stroke="none">
<path d="M221 573 c-61 -22 -133 -96 -154 -158 -36 -105 -13 -210 63 -285 171
-172 463 -48 459 194 0 58 -13 101 -22 76 -22 -62 -47 -146 -47 -156 0 -18
-68 -127 -91 -147 -27 -22 -64 -23 -55 -2 3 8 9 22 12 31 5 10 -10 5 -43 -15
-61 -38 -78 -40 -68 -9 9 28 11 85 3 94 -13 13 -64 -23 -80 -56 l-16 -35 -11
30 c-7 17 -18 44 -26 60 l-15 30 0 -27 c0 -35 -13 -36 -28 -3 -19 41 -14 70
18 110 17 21 30 49 30 62 0 14 9 36 20 50 11 14 20 32 20 40 0 9 17 36 38 62
65 78 65 79 -7 54z"/>
<path d="M282 528 c-47 -98 -62 -137 -62 -162 0 -13 -7 -41 -16 -62 l-15 -39
25 29 c14 16 26 34 26 40 0 22 60 129 104 183 25 31 43 61 40 65 -3 4 -20 8
-38 8 -31 0 -36 -4 -64 -62z"/>
<path d="M386 527 c-14 -24 -31 -59 -37 -78 -7 -19 -16 -38 -20 -43 -5 -6 -9
-22 -9 -37 0 -15 -7 -43 -16 -64 -8 -20 -13 -42 -10 -48 3 -9 5 -8 5 1 1 6 5
12 11 12 5 0 7 -8 3 -18 -3 -9 18 28 47 83 29 55 56 102 60 105 4 3 17 27 29
55 21 47 21 50 5 62 -29 21 -42 15 -68 -30z"/>
<path d="M470 473 c-7 -32 -14 -69 -16 -81 -3 -31 -24 -123 -32 -142 -35 -88
46 -3 99 104 21 43 39 84 39 90 0 14 -58 86 -69 86 -4 0 -14 -26 -21 -57z"/>
<path d="M183 355 c-9 -10 -9 -16 -2 -20 14 -9 22 0 17 18 -2 13 -5 13 -15 2z"/>
<path d="M266 333 c-4 -9 -2 -21 4 -27 7 -7 10 -2 10 17 0 31 -5 34 -14 10z"/>
<path d="M144 301 c-32 -26 -47 -58 -35 -79 9 -15 10 -15 11 0 0 9 12 25 26
35 17 13 25 26 22 40 -3 21 -4 21 -24 4z"/>
<path d="M206 246 c-14 -19 -26 -47 -26 -63 l0 -27 16 22 c9 13 27 27 41 33
19 7 24 15 21 36 -4 39 -21 38 -52 -1z"/>
<path d="M365 271 c-3 -5 -1 -12 5 -16 5 -3 10 1 10 9 0 18 -6 21 -15 7z"/>
<path d="M345 230 c-3 -5 1 -10 9 -10 9 0 16 5 16 10 0 6 -4 10 -9 10 -6 0
-13 -4 -16 -10z"/>
<path d="M324 193 c-3 -10 -12 -35 -19 -56 -14 -39 -14 -39 8 -24 12 8 30 26
41 40 16 22 17 29 6 42 -16 20 -29 19 -36 -2z"/>
<path d="M453 204 c3 -4 -2 -14 -13 -23 -10 -9 -26 -33 -34 -54 -15 -36 -15
-37 5 -26 11 6 29 31 40 56 22 53 22 53 7 53 -6 0 -9 -3 -5 -6z"/>
</g>
</svg>
